static_grf.mot
version=1
nRows=12
nColumns 19
inDegrees=yes
endheader
time	1_ground_force_vx	1_ground_force_vy	1_ground_force_vz	1_ground_force_px	1_ground_force_py	1_ground_force_pz	1_ground_torque_x	1_ground_torque_y	1_ground_torque_z	2_ground_force_vx	2_ground_force_vy	2_ground_force_vz	2_ground_force_px	2_ground_force_py	2_ground_force_pz	2_ground_torque_x	2_ground_torque_y	2_ground_torque_z
            0.005000	           -4.640397	          459.685901	          -42.223782	           -0.236939	            0.006014	           -0.356817	           -0.016004	            1.585401	           -0.145625	            2.589903	          468.883657	           45.831061	           -0.262022	            0.005697	           -0.742399	           -0.006323	           -1.144805	           -0.111899
            0.005500	           -4.595594	          459.147049	          -42.684774	           -0.236931	            0.006015	           -0.356898	           -0.016109	            1.609486	           -0.149626	            2.214521	          469.065836	           46.019590	           -0.262010	            0.005698	           -0.742513	           -0.005399	           -1.143552	           -0.112193
            0.006000	           -4.594878	          458.965634	          -42.410411	           -0.236936	            0.006015	           -0.356912	           -0.016012	            1.599417	           -0.147793	            2.404518	          468.330391	           45.876098	           -0.261971	            0.005698	           -0.742451	           -0.006027	           -1.173850	           -0.114986
            0.006500	           -4.686354	          459.686089	          -42.269528	           -0.237013	            0.006013	           -0.356577	           -0.016727	            1.640742	           -0.150871	            2.262618	          468.698333	           45.830544	           -0.261952	            0.005697	           -0.742282	           -0.005552	           -1.150061	           -0.112456
            0.007000	           -4.778217	          458.785302	          -42.410729	           -0.236902	            0.006015	           -0.356955	           -0.017216	            1.653004	           -0.152806	            2.215768	          468.698163	           45.830564	           -0.261915	            0.005697	           -0.742321	           -0.005364	           -1.134540	           -0.110938
            0.007500	           -4.732344	          459.866512	          -42.314493	           -0.236855	            0.006015	           -0.356869	           -0.016752	            1.627918	           -0.149792	            2.308886	          468.881973	           46.018893	           -0.262177	            0.005697	           -0.742438	           -0.005758	           -1.169249	           -0.114757
            0.008000	           -4.733009	          459.146826	          -42.638580	           -0.236947	            0.006015	           -0.357017	           -0.016447	            1.595481	           -0.148164	            2.260001	          469.434622	           45.927028	           -0.261982	            0.005697	           -0.742425	           -0.005645	           -1.172467	           -0.114708
            0.008500	           -4.640901	          459.326353	          -42.454611	           -0.237023	            0.006015	           -0.356877	           -0.015968	            1.580449	           -0.146078	            2.403250	          468.698171	           46.018196	           -0.262029	            0.005696	           -0.742162	           -0.005963	           -1.162911	           -0.114178
            0.009000	           -4.869969	          459.145816	          -42.408956	           -0.236931	            0.006014	           -0.356750	           -0.016378	            1.544176	           -0.142628	            2.168980	          468.697492	           45.971368	           -0.262027	            0.005697	           -0.742362	           -0.005447	           -1.177007	           -0.115445
            0.009500	           -4.961508	          458.965366	          -42.363649	           -0.237092	            0.006015	           -0.356951	           -0.017357	            1.605597	           -0.148201	            2.215830	          468.697661	           45.971348	           -0.262069	            0.005696	           -0.742121	           -0.005509	           -1.165204	           -0.114287
            0.010000	           -4.778200	          458.064436	          -42.459681	           -0.237082	            0.006016	           -0.357159	           -0.016739	            1.604715	           -0.148747	            2.450703	          468.514701	           45.876735	           -0.262032	            0.005697	           -0.742448	           -0.006325	           -1.209214	           -0.118406
            0.010500	           -4.915746	          458.785276	          -42.410388	           -0.237085	            0.006016	           -0.357200	           -0.017437	            1.627414	           -0.150439	            2.446715	          469.619606	           45.880677	           -0.262174	            0.005697	           -0.742542	           -0.006035	           -1.158379	           -0.113171
